<svg id="Layer_1" data-name="Layer 1" xmlns="http://www.w3.org/2000/svg" width="516" height="541" viewBox="0 0 516 541"><defs><style>.cls-1{fill:#fff;}</style></defs><path class="cls-1" d="M269.13,265.57q0,25-12.26,45a90.09,90.09,0,0,1-33.19,31.74q-20.93,11.79-46.42,11.79H17.57V12.57H176.78q24,0,41.61,12.74A83.8,83.8,0,0,1,245.32,58a96.79,96.79,0,0,1,9.38,41.61,91.19,91.19,0,0,1-13,47.38,76.76,76.76,0,0,1-36.07,32q29.33,8.67,46.42,32.47T269.13,265.57ZM42.1,34.69V171.3H167.16q18.76,0,33-9.86A71.88,71.88,0,0,0,230.65,103,75.47,75.47,0,0,0,223,68.84a64.46,64.46,0,0,0-21.41-24.77A54.5,54.5,0,0,0,170,34.69ZM244.6,262.21a71.87,71.87,0,0,0-8.42-34.16,72.85,72.85,0,0,0-22.85-26,55.68,55.68,0,0,0-32.7-10.1H42.1V332H177.26a62,62,0,0,0,34.15-9.86,71.33,71.33,0,0,0,24.29-26A69.18,69.18,0,0,0,244.6,262.21Z"/><path class="cls-1" d="M503.13,425.57q0,25-12.26,45a90.09,90.09,0,0,1-33.19,31.74q-20.93,11.79-46.42,11.79H251.57V172.57H410.78q24,0,41.61,12.74A83.8,83.8,0,0,1,479.32,218a96.79,96.79,0,0,1,9.38,41.61,91.19,91.19,0,0,1-13,47.38,76.76,76.76,0,0,1-36.07,32q29.33,8.67,46.42,32.47T503.13,425.57Zm-227-230.88V331.3H401.16q18.76,0,32.95-9.86A71.88,71.88,0,0,0,464.65,263,75.47,75.47,0,0,0,457,228.84a64.46,64.46,0,0,0-21.41-24.77A54.5,54.5,0,0,0,404,194.69ZM478.6,422.21a71.87,71.87,0,0,0-8.42-34.16,72.85,72.85,0,0,0-22.85-26,55.68,55.68,0,0,0-32.7-10.1H276.1V492H411.26a62,62,0,0,0,34.15-9.86,71.33,71.33,0,0,0,24.29-26A69.18,69.18,0,0,0,478.6,422.21Z"/></svg>